<mxfile host="app.diagrams.net" modified="2021-09-19T06:36:08.388Z" agent="5.0 (Windows NT 10.0; Win64; x64) AppleWebKit/537.36 (KHTML, like Gecko) Chrome/93.0.4577.82 Safari/537.36" etag="B0wwhqj00vGgJdJ6C79Z" version="15.2.9" type="github">
  <diagram id="xPKR4j3LUY5ekQFR6ZTb" name="Page-1">
    <mxGraphModel dx="1306" dy="752" grid="1" gridSize="10" guides="1" tooltips="1" connect="1" arrows="1" fold="1" page="1" pageScale="1" pageWidth="827" pageHeight="1169" math="0" shadow="0">
      <root>
        <mxCell id="0" />
        <mxCell id="1" parent="0" />
        <mxCell id="OAbBt2JzRU2WnQiv8NF_-1" value="&lt;b&gt;&lt;font style=&quot;font-size: 18px&quot;&gt;一个事件从模糊到规则清晰明了：&lt;/font&gt;&lt;/b&gt;&lt;br&gt;1、事件的诞生：我们要做什么？达到什么目的（产出结果）&lt;br&gt;2、事件的设计：我们要怎么做？拆分事件（每一部分的实现方法）&lt;br&gt;3、事件的实施：拆分下来的事件部件，该怎么去实现。&lt;br&gt;4、事件的测试：整合事件部件后得出的结果的验证&lt;br&gt;5、事件的交付：把最终结果交付&lt;br&gt;6、事件的总结：优化封装成规则。" style="text;html=1;align=left;verticalAlign=middle;resizable=0;points=[];autosize=1;strokeColor=none;fillColor=none;" vertex="1" parent="1">
          <mxGeometry x="60" y="60" width="370" height="110" as="geometry" />
        </mxCell>
      </root>
    </mxGraphModel>
  </diagram>
</mxfile>
